<svg xmlns="http://www.w3.org/2000/svg" version="1.1" xmlns:xlink="http://www.w3.org/1999/xlink" xmlns:svgjs="http://svgjs.com/svgjs" width="512" height="512" x="0" y="0" viewBox="0 0 512 512" style="enable-background:new 0 0 512 512" xml:space="preserve" class=""><g><path d="M7.5 487.02c0 9.656 7.3 17.48 16.31 17.48h464.38c9.01 0 16.31-7.824 16.31-17.48V24.98c0-9.656-7.3-17.48-16.31-17.48H23.81C14.8 7.5 7.5 15.324 7.5 24.98v462.04zM311.64 71.15H10.21M501.79 71.15H346.64M110.31 39.325h0M76.19 39.325h0M42.07 39.325h0" style="stroke-linecap: round; stroke-linejoin: round; stroke-miterlimit: 10;" fill="none" stroke="#429089" stroke-width="15px" stroke-linecap="round" stroke-linejoin="round" stroke-miterlimit="10" data-original="#000000" class=""></path><path d="M123.241 464.5H459.5a5 5 0 0 0 5-5v-22.014a5 5 0 0 0-5-5h-407a5 5 0 0 0-5 5V459.5a5 5 0 0 0 5 5h35.741M77.753 432.486V325.337h32.014v107.149M109.767 325.337h32.013v107.149M370.22 432.486V325.337h32.013M263.071 432.486v-32.013H370.22v32.013M263.071 400.473v-32.014H370.22" style="stroke-linecap: round; stroke-linejoin: round; stroke-miterlimit: 10;" fill="none" stroke="#429089" stroke-width="15px" stroke-linecap="round" stroke-linejoin="round" stroke-miterlimit="10" data-original="#000000" class=""></path><path d="M402.23 353.34v-28h32.02v107.15M402.23 432.49v-44.15" style="stroke-linecap: round; stroke-linejoin: round; stroke-miterlimit: 10;" fill="none" stroke="#429089" stroke-width="15px" stroke-linecap="round" stroke-linejoin="round" stroke-miterlimit="10" data-original="#000000" class=""></path><path d="M171.339 325.337h32.014v107.149h-32.014z" style="stroke-linecap: round; stroke-linejoin: round; stroke-miterlimit: 10;" transform="rotate(-37.945 187.341 378.91)" fill="none" stroke="#429089" stroke-width="15px" stroke-linecap="round" stroke-linejoin="round" stroke-miterlimit="10" data-original="#000000" class=""></path><path d="M174.671 190.741v74.594H47.5V111.15h127.171v44.591M130.57 173.241H91.6M140.571 203.244H81.599M242.913 135.991h191.334M242.913 175.833h146.314M272.107 215.676l9.845 13.899 16.262 5.069-10.177 13.659.205 17.032-16.135-5.457-16.136 5.457.205-17.032-10.177-13.659 16.262-5.069zM355.25 215.676l9.845 13.899 16.262 5.069-10.177 13.659.205 17.032-16.135-5.457-16.136 5.457.205-17.032-10.177-13.659 16.262-5.069zM438.392 215.676l9.846 13.899 16.262 5.069-10.177 13.659.205 17.032-16.136-5.457-16.135 5.457.205-17.032-10.177-13.659 16.262-5.069zM174.671 111.15h32.056v154.185h-32.056" style="stroke-linecap: round; stroke-linejoin: round; stroke-miterlimit: 10;" fill="none" stroke="#429089" stroke-width="15px" stroke-linecap="round" stroke-linejoin="round" stroke-miterlimit="10" data-original="#000000" class=""></path></g></svg>