<svg xmlns="http://www.w3.org/2000/svg" version="1.1" xmlns:xlink="http://www.w3.org/1999/xlink" xmlns:svgjs="http://svgjs.com/svgjs" width="512" height="512" x="0" y="0" viewBox="0 0 512 512" style="enable-background:new 0 0 512 512" xml:space="preserve" class=""><g><path d="M456.834 0H55.166C24.748 0 0 24.748 0 55.166v401.667C0 487.252 24.748 512 55.166 512h401.668C487.253 512 512 487.252 512 456.833V55.166C512 24.748 487.253 0 456.834 0zM482 456.833C482 470.71 470.711 482 456.834 482H55.166C41.29 482 30 470.71 30 456.833V55.166C30 41.29 41.29 30 55.166 30h401.668C470.711 30 482 41.29 482 55.166z" fill="#000000" data-original="#000000" class=""></path><path d="M150.902 194.165H78.445c-8.284 0-15 6.716-15 15v230.394c0 8.284 6.716 15 15 15h72.457c8.284 0 15-6.716 15-15V209.165c0-8.284-6.715-15-15-15zm-15 230.394H93.445V224.165h42.457zM347.522 194.165a105.948 105.948 0 0 0-46.358 10.659c-1.861-6.168-7.587-10.659-14.362-10.659h-72.458c-8.284 0-15 6.716-15 15v230.394c0 8.284 6.716 15 15 15h72.458c8.284 0 15-6.716 15-15V305.603c0-13.481 10.966-24.448 24.445-24.448 13.48 0 24.447 10.967 24.447 24.448v133.956c0 8.284 6.716 15 15 15h72.936c8.284 0 15-6.716 15-15V300.271c-.001-58.507-47.6-106.106-106.108-106.106zm76.107 230.394h-42.936V305.603c0-30.023-24.425-54.448-54.447-54.448-30.021 0-54.445 24.425-54.445 54.448v118.956h-42.458V224.165h42.458v8.202a15.002 15.002 0 0 0 25.003 11.178 75.96 75.96 0 0 1 50.718-19.38c41.966 0 76.107 34.141 76.107 76.105zM114.674 57.441c-28.248 0-51.229 22.981-51.229 51.229s22.981 51.229 51.229 51.229 51.229-22.981 51.229-51.229-22.982-51.229-51.229-51.229zm0 72.457c-11.706 0-21.229-9.523-21.229-21.229s9.523-21.229 21.229-21.229 21.229 9.523 21.229 21.229-9.524 21.229-21.229 21.229z" fill="#000000" data-original="#000000" class=""></path></g></svg>