<svg xmlns="http://www.w3.org/2000/svg" version="1.1" xmlns:xlink="http://www.w3.org/1999/xlink" xmlns:svgjs="http://svgjs.com/svgjs" width="512" height="512" x="0" y="0" viewBox="0 0 496 496" style="enable-background:new 0 0 512 512" xml:space="preserve"><g><path d="M365.008 0H130.992C57.536 0 0 57.536 0 130.992v234.016C0 438.464 57.536 496 130.992 496h234.016C438.464 496 496 438.464 496 365.008V130.992C496 57.536 438.448 0 365.008 0zM464 365.008c0 55.52-43.488 98.992-98.992 98.992H130.992C75.488 464 32 420.512 32 365.008V130.992C32 75.488 75.488 32 130.992 32h234.016C420.528 32 464 75.488 464 130.992v234.016z" fill="#000000" data-original="#000000"></path><path d="M403.984 126.64c-5.136-3.76-12.016-4.08-17.504-.88-5.472 3.216-17.6 4.8-27.328 6.08-2.016.272-4 .528-5.92.8-13.616-11.296-31.008-17.632-48.944-17.632-40.4 0-73.552 31.264-75.904 70.592-36.64-6.176-70.192-25.28-93.968-53.984-3.536-4.288-9.024-6.384-14.56-5.664a15.973 15.973 0 0 0-12.432 9.424c-1.024 2.336-9.952 24.304-9.952 78.64 0 47.056 37.136 81.632 62.608 99.824-17.424 7.92-37.504 10.832-56.576 8.72-7.456-.8-14.432 3.584-16.896 10.608A16.017 16.017 0 0 0 93.168 352c30.08 18.976 64.848 29.008 100.56 29.008 114.688 0 184.096-90.096 186.672-178.928 3.296-4.784 9.584-14.096 20.208-30.432 4.256-6.576 7.824-20.752 9.568-28.608 1.392-6.208-1.056-12.656-6.192-16.4zm-52.448 60.896a16.036 16.036 0 0 0-3.04 9.376c0 63.152-48.016 152.096-154.752 152.096-9.648 0-19.216-.88-28.592-2.608 12.512-4.736 24.336-11.344 35.2-19.712 4.352-3.344 6.672-8.72 6.16-14.176a15.98 15.98 0 0 0-8.704-12.768c-.688-.352-68.32-35.92-68.32-85.712 0-16.688.896-29.808 2.08-39.792 31.408 27.04 71.376 43.216 113.44 45.296.32.016.656.032.96.016 9.312-.272 16.16-7.104 16.16-16 0-2.208-.448-4.304-1.264-6.224-.4-2.4-.608-4.816-.608-7.232 0-23.76 19.744-43.088 44.032-43.088 12.192 0 23.92 4.992 32.192 13.68 3.776 3.936 9.296 5.712 14.624 4.672 3.632-.688 7.824-1.232 12.224-1.808 1.568-.208 3.152-.416 4.768-.64-12.016 18.304-16.352 24.336-16.56 24.624z" fill="#000000" data-original="#000000"></path></g></svg>